<svg width="1238" height="264" viewBox="0 0 1238 264" fill="none" xmlns="http://www.w3.org/2000/svg">
<g clip-path="url(#clip0_1064_6)">
<path d="M366.529 154.786L327.881 101.829V193.286H304.001V62.8574H324.896L369.829 123.2L414.918 62.8574H435.813V193.286H411.933V102.143L372.971 154.786H366.529Z" fill="#040030"/>
<path d="M485.773 62.8574H575.01V83.6003H509.654V118.486H566.212V138.915H509.654V172.7H575.953V193.286H485.773V62.8574Z" fill="#040030"/>
<path fill-rule="evenodd" clip-rule="evenodd" d="M669.902 147.872H642.251V193.286H618.371V62.8574H674.615C681.214 62.8574 687.289 63.8527 692.84 65.8431C698.391 67.9384 703.156 70.8717 707.136 74.6431C711.221 78.3098 714.363 82.7622 716.563 88.0003C718.762 93.2384 719.862 99.0527 719.862 105.443C719.862 110.157 719.286 114.557 718.134 118.643C716.877 122.834 715.149 126.553 712.949 129.8C710.645 133.153 707.869 136.086 704.623 138.6C701.376 141.115 697.762 143.105 693.782 144.572L722.847 193.286H695.51L669.902 147.872ZM673.83 127.286C676.972 127.286 679.905 126.762 682.628 125.715C685.351 124.667 687.707 123.2 689.697 121.315C691.583 119.429 693.101 117.124 694.254 114.4C695.406 111.676 695.982 108.691 695.982 105.443C695.982 102.196 695.406 99.2098 694.254 96.486C693.101 93.8669 691.583 91.5622 689.697 89.5717C687.707 87.686 685.298 86.1669 682.471 85.0146C679.747 83.9669 676.815 83.4431 673.673 83.4431H642.251V127.286H673.83Z" fill="#040030"/>
<path d="M868.957 107.486C867.176 103.191 864.872 99.3672 862.044 96.0148C859.112 92.6625 855.813 89.8339 852.147 87.5291C848.481 85.2244 844.501 83.4434 840.207 82.1863C835.912 81.0339 831.566 80.4577 827.167 80.4577C820.673 80.4577 814.598 81.6625 808.942 84.072C803.287 86.4815 798.364 89.8339 794.174 94.1291C789.88 98.3196 786.528 103.348 784.12 109.215C781.606 114.977 780.349 121.21 780.349 127.915C780.349 134.62 781.606 140.905 784.12 146.772C786.528 152.534 789.88 157.51 794.174 161.701C798.364 165.996 803.287 169.348 808.942 171.758C814.598 174.167 820.673 175.372 827.167 175.372C831.566 175.372 835.912 174.796 840.207 173.643C844.396 172.491 848.376 170.762 852.147 168.458C855.813 166.153 859.059 163.324 861.887 159.972C864.82 156.62 867.124 152.796 868.8 148.501H893.309C891.214 156.148 887.915 162.958 883.411 168.929C878.802 174.796 873.461 179.72 867.386 183.701C861.416 187.786 854.922 190.877 847.905 192.972C840.992 195.067 834.079 196.115 827.167 196.115C820.568 196.115 814.284 195.277 808.314 193.601C802.344 192.029 796.74 189.777 791.504 186.843C786.267 183.805 781.501 180.243 777.207 176.158C772.913 172.072 769.247 167.462 766.209 162.329C763.172 157.301 760.815 151.905 759.14 146.143C757.359 140.277 756.469 134.201 756.469 127.915C756.469 121.524 757.359 115.448 759.14 109.686C760.815 103.82 763.172 98.372 766.209 93.3434C769.247 88.3148 772.913 83.7053 777.207 79.5148C781.501 75.4291 786.267 71.9196 791.504 68.9863C796.74 66.0529 802.344 63.8006 808.314 62.2291C814.284 60.5529 820.568 59.7148 827.167 59.7148C834.079 59.7148 840.992 60.7625 847.905 62.8577C854.922 64.8482 861.416 67.8339 867.386 71.8148C873.461 75.7958 878.802 80.772 883.411 86.7434C887.915 92.7148 891.214 99.6815 893.309 107.643L868.957 107.486Z" fill="#040030"/>
<path fill-rule="evenodd" clip-rule="evenodd" d="M930.229 127.915C930.229 121.524 931.066 115.448 932.742 109.686C934.523 103.82 936.932 98.372 939.969 93.3434C943.007 88.3148 946.672 83.7053 950.967 79.5148C955.261 75.4291 960.026 71.9196 965.263 68.9863C970.396 66.0529 975.999 63.8006 982.074 62.2291C988.044 60.5529 994.276 59.7148 1000.77 59.7148C1007.26 59.7148 1013.55 60.5529 1019.62 62.2291C1025.59 63.8006 1031.2 66.0529 1036.43 68.9863C1041.67 71.9196 1046.44 75.4291 1050.73 79.5148C1055.02 83.7053 1058.74 88.3148 1061.88 93.3434C1064.92 98.372 1067.28 103.82 1068.95 109.686C1070.63 115.448 1071.47 121.524 1071.47 127.915C1071.47 134.201 1070.63 140.277 1068.95 146.143C1067.28 151.905 1064.92 157.301 1061.88 162.329C1058.74 167.462 1055.02 172.072 1050.73 176.158C1046.44 180.243 1041.67 183.805 1036.43 186.843C1031.2 189.777 1025.59 192.029 1019.62 193.601C1013.55 195.277 1007.26 196.115 1000.77 196.115C994.276 196.115 988.044 195.277 982.074 193.601C975.999 192.029 970.396 189.777 965.263 186.843C960.026 183.805 955.261 180.243 950.967 176.158C946.672 172.072 943.007 167.462 939.969 162.329C936.932 157.301 934.523 151.905 932.742 146.143C931.066 140.277 930.229 134.201 930.229 127.915ZM954.109 127.915C954.109 134.62 955.366 140.905 957.879 146.772C960.288 152.534 963.588 157.51 967.777 161.701C972.071 165.996 977.046 169.348 982.702 171.758C988.358 174.167 994.38 175.372 1000.77 175.372C1007.37 175.372 1013.5 174.167 1019.15 171.758C1024.81 169.348 1029.78 165.996 1034.08 161.701C1038.27 157.51 1041.56 152.534 1043.97 146.772C1046.38 140.905 1047.59 134.62 1047.59 127.915C1047.59 121.21 1046.38 114.977 1043.97 109.215C1041.56 103.348 1038.27 98.3196 1034.08 94.1291C1029.78 89.8339 1024.81 86.4815 1019.15 84.072C1013.5 81.6625 1007.37 80.4577 1000.77 80.4577C994.38 80.4577 988.358 81.6625 982.702 84.072C977.046 86.4815 972.071 89.8339 967.777 94.1291C963.588 98.3196 960.288 103.348 957.879 109.215C955.366 114.977 954.109 121.21 954.109 127.915Z" fill="#040030"/>
<path fill-rule="evenodd" clip-rule="evenodd" d="M1139.18 193.285H1115.61L1115.93 62.6992H1140.91L1237.37 193.285H1209.41L1191.5 169.242H1139.18V193.285ZM1142.48 103.556L1139.49 96.6421H1139.18V151.799H1178.61L1142.48 103.556Z" fill="#040030"/>
<path d="M31.2647 165H156.164V183.857H0.628906V167.514L48.0751 132.157L0.628906 96.6426V80.1426H71.1698V98.9997H31.4218L72.7408 129.643V134.671L31.2647 165ZM262.84 96.4854L215.551 131.843L262.84 167.357V183.7H193.242V165H232.047L190.728 134.357V129.328L232.204 98.9997H108.404V80.1426H262.84V96.4854Z" fill="#040030"/>
<path d="M164.804 107.172H183.5V263.058H167.161L131.812 215.758L96.3059 263.058H79.9668V193.915H98.6625V232.258L129.298 190.929H134.483L164.804 232.415V107.172ZM183.5 0.943359V71.3434H164.804V31.7434L134.169 73.2291H129.141L98.6625 31.5862V155.886H79.9668V0.943359H96.3059L131.655 48.4005L167.161 0.943359H183.5Z" fill="#040030"/>
<path d="M148.78 148.972H115.631V115.814H148.78V148.972Z" fill="#BE1E2D"/>
</g>
<defs>
<clipPath id="clip0_1064_6">
<rect width="1238" height="264" fill="white"/>
</clipPath>
</defs>
</svg>
